<?xml version="1.0" standalone="no"?>
<!DOCTYPE svg PUBLIC "-//W3C//DTD SVG 20010904//EN"
 "http://www.w3.org/TR/2001/REC-SVG-20010904/DTD/svg10.dtd">
<svg version="1.0" xmlns="http://www.w3.org/2000/svg"
 width="868.000000pt" height="628.000000pt" viewBox="0 0 868.000000 628.000000"
 preserveAspectRatio="xMidYMid meet">

<g transform="translate(0.000000,628.000000) scale(0.100000,-0.100000)"
fill="#000000" stroke="none">
<path d="M390 5703 c-50 -18 -65 -72 -32 -114 38 -46 122 -17 122 41 0 47 -50
87 -90 73z"/>
<path d="M704 5687 c-60 -52 -2 -148 70 -116 54 25 54 103 0 128 -34 15 -39
14 -70 -12z"/>
<path d="M1053 5700 c-68 -27 -48 -133 25 -133 42 0 72 28 72 68 0 49 -51 83
-97 65z"/>
<path d="M5720 5475 l0 -155 25 0 c24 0 25 2 25 70 l0 70 75 0 75 0 0 -70 c0
-68 1 -70 25 -70 l25 0 0 155 0 155 -25 0 c-24 0 -25 -2 -25 -70 l0 -70 -75 0
-75 0 0 70 c0 68 -1 70 -25 70 l-25 0 0 -155z"/>
<path d="M6054 5517 c-22 -19 -28 -34 -32 -80 -4 -52 -2 -58 26 -87 25 -25 38
-30 77 -30 38 0 52 5 76 29 25 25 29 37 29 81 0 44 -4 56 -29 81 -39 38 -106
41 -147 6z m104 -23 c18 -12 22 -25 22 -64 0 -39 -4 -52 -22 -64 -30 -21 -44
-20 -68 4 -39 39 -16 140 33 140 7 0 23 -7 35 -16z"/>
<path d="M6252 5528 c3 -7 20 -57 37 -110 29 -86 35 -98 55 -98 20 0 26 10 47
82 l23 82 26 -80 c23 -69 30 -79 50 -79 22 0 27 10 51 85 14 47 29 95 33 108
7 21 5 23 -15 20 -19 -2 -27 -15 -44 -70 -11 -37 -23 -69 -26 -72 -3 -4 -16
28 -28 70 -19 66 -25 75 -43 72 -17 -2 -27 -20 -48 -83 -25 -74 -27 -78 -34
-50 -29 117 -37 135 -63 135 -16 0 -23 -5 -21 -12z"/>
<path d="M6747 5529 c-24 -14 -47 -62 -47 -99 0 -38 24 -86 49 -100 48 -25
154 1 124 31 -10 10 -18 10 -38 1 -35 -16 -42 -15 -65 8 -20 20 -27 71 -14
105 10 24 49 36 81 24 18 -7 30 -6 37 1 29 29 -83 55 -127 29z"/>
<path d="M6935 5526 c-11 -8 -16 -20 -12 -29 6 -15 10 -15 41 -2 34 14 37 14
57 -6 28 -28 20 -43 -27 -50 -78 -11 -110 -48 -80 -94 18 -27 70 -34 106 -15
13 7 21 7 25 0 3 -5 13 -10 21 -10 11 0 14 18 14 90 0 77 -3 93 -20 110 -24
24 -96 27 -125 6z m105 -128 c0 -20 -32 -48 -57 -48 -28 0 -40 24 -23 45 15
18 80 20 80 3z"/>
<path d="M7140 5430 c0 -103 1 -110 20 -110 18 0 20 7 20 79 0 51 4 82 13 88
27 21 48 22 67 3 16 -16 20 -34 20 -95 0 -68 2 -75 20 -75 18 0 20 7 20 88 0
106 -13 132 -66 132 -20 0 -44 -5 -54 -10 -13 -7 -21 -7 -25 0 -3 5 -13 10
-21 10 -11 0 -14 -21 -14 -110z"/>
<path d="M2157 5389 c-57 -13 -89 -33 -132 -80 -51 -57 -80 -125 -169 -399
-57 -176 -88 -253 -121 -309 l-45 -73 19 -32 c11 -17 54 -64 96 -104 84 -78
193 -139 300 -167 66 -18 257 -23 263 -7 1 5 13 7 25 5 71 -14 346 138 321
178 -4 8 -3 9 4 5 23 -14 31 5 14 33 -9 16 -20 27 -24 25 -5 -3 -8 1 -8 10 0
8 -5 16 -12 18 -6 2 -11 18 -11 36 0 28 -3 31 -24 26 -35 -9 -106 16 -127 44
-11 14 -15 22 -9 19 7 -4 15 4 20 19 l9 26 19 -23 c11 -12 14 -19 8 -15 -7 4
-13 3 -13 -3 0 -6 13 -8 33 -5 55 10 60 13 48 28 -6 7 -8 16 -4 19 3 4 -1 7
-10 7 -24 0 -21 17 7 35 13 9 26 25 29 35 3 11 18 25 34 31 l28 11 -28 15
c-16 8 -31 12 -35 9 -3 -3 0 -6 6 -6 7 0 12 -7 12 -15 0 -9 -9 -15 -24 -15
-17 0 -26 -7 -30 -25 -7 -27 -40 -45 -81 -45 -22 0 -23 4 -24 59 0 54 2 60 24
65 13 3 32 3 42 0 15 -5 15 -4 3 5 -8 6 -10 11 -5 11 20 0 64 47 71 74 6 24 4
27 -12 24 -12 -2 -18 -11 -17 -25 1 -12 -3 -25 -10 -31 -17 -13 -58 -22 -51
-11 3 5 2 9 -3 9 -4 0 -13 12 -20 26 -10 22 -9 33 11 73 28 58 26 147 -5 156
-19 6 -27 25 -11 25 5 0 27 -13 48 -29 85 -62 107 -105 91 -178 -6 -33 -5 -47
6 -63 22 -32 31 -9 35 96 3 73 1 99 -14 130 -25 52 -144 178 -157 165 -11 -11
-35 -4 -55 16 -8 7 -18 11 -23 8 -5 -4 -9 -1 -9 6 0 7 -3 10 -6 6 -3 -3 -28 3
-55 14 -28 10 -58 19 -69 19 -10 0 -21 4 -25 9 -3 6 4 8 17 5 13 -3 38 -7 56
-9 18 -2 40 -9 48 -16 8 -6 14 -8 14 -3 0 4 5 3 12 -4 7 -7 21 -12 33 -11 30
1 -77 47 -149 64 -68 16 -122 17 -179 4z m100 -45 c-3 -3 -12 -4 -19 -1 -8 3
-5 6 6 6 11 1 17 -2 13 -5z m47 -55 c-3 -5 1 -6 9 -3 8 3 18 1 21 -4 11 -19
-21 -20 -48 -2 l-28 18 26 0 c14 0 23 -4 20 -9z m300 -76 c10 -23 -9 -12 -34
20 l-25 32 27 -20 c15 -11 29 -26 32 -32z m-157 -3 c7 -8 12 -22 12 -30 0 -8
-4 -5 -9 8 -5 12 -16 22 -25 22 -8 0 -15 5 -15 10 0 14 23 8 37 -10z m-289
-160 c-5 -17 -15 -33 -21 -37 -5 -3 -7 -2 -4 4 4 6 11 22 16 37 14 36 22 33 9
-4z m212 -10 c0 -5 -4 -10 -10 -10 -5 0 -10 5 -10 10 0 6 5 10 10 10 6 0 10
-4 10 -10z m-263 -82 c-3 -8 -6 -5 -6 6 -1 11 2 17 5 13 3 -3 4 -12 1 -19z
m228 -48 c-4 -17 -9 -29 -12 -26 -3 2 -2 19 2 36 4 17 9 29 12 26 3 -2 2 -19
-2 -36z m-18 -72 c-3 -7 -5 -2 -5 12 0 14 2 19 5 13 2 -7 2 -19 0 -25z m357
-422 l19 -29 -32 22 c-28 20 -45 41 -21 26 6 -3 10 -1 10 6 0 14 0 14 24 -25z
m-369 -106 c-3 -5 -10 -10 -16 -10 -5 0 -9 5 -9 10 0 6 7 10 16 10 8 0 12 -4
9 -10z"/>
<path d="M2510 5310 c0 -5 5 -10 11 -10 5 0 7 5 4 10 -3 6 -8 10 -11 10 -2 0
-4 -4 -4 -10z"/>
<path d="M5940 4921 l0 -161 25 0 c25 0 25 1 25 84 0 79 2 85 23 92 55 19 67
2 67 -98 0 -77 0 -78 26 -78 l26 0 -4 89 c-4 106 -19 131 -79 131 -21 0 -41
-6 -46 -12 -5 -8 -10 11 -13 47 -4 53 -8 60 -27 63 l-23 3 0 -160z"/>
<path d="M6410 4921 l0 -161 25 0 26 0 -3 158 c-3 154 -3 157 -25 160 l-23 3
0 -160z"/>
<path d="M5720 4915 l0 -155 25 0 25 0 0 155 0 155 -25 0 -25 0 0 -155z"/>
<path d="M6744 5056 c-26 -20 -11 -31 43 -31 69 0 78 -23 29 -74 -23 -23 -36
-46 -34 -57 4 -25 38 -31 38 -8 0 10 16 32 35 50 41 37 47 82 15 114 -24 24
-96 27 -126 6z"/>
<path d="M6199 4951 c-25 -25 -29 -37 -29 -81 0 -44 4 -56 29 -81 25 -24 38
-29 78 -29 56 0 95 21 76 41 -9 9 -19 9 -44 0 -43 -15 -83 4 -87 42 l-3 27 75
0 c46 0 76 4 76 10 0 24 -30 79 -48 89 -39 21 -91 13 -123 -18z m102 -11 c10
-6 19 -20 19 -30 0 -17 -7 -20 -50 -20 -54 0 -65 14 -34 44 18 19 38 20 65 6z"/>
<path d="M6510 4835 l0 -145 25 0 c22 0 25 4 25 39 l0 38 48 -4 c40 -4 50 -1
70 20 25 27 39 90 28 132 -14 57 -75 82 -129 54 -16 -9 -22 -9 -25 0 -2 6 -12
11 -23 11 -18 0 -19 -9 -19 -145z m148 55 c7 -72 -26 -113 -75 -91 -22 10 -24
16 -21 68 3 50 6 59 28 70 34 17 64 -3 68 -47z"/>
<path d="M6780 4805 c-18 -21 -5 -47 22 -43 26 3 37 36 16 49 -18 12 -24 11
-38 -6z"/>
<path d="M2760 4520 c0 -5 5 -9 12 -7 8 1 11 -9 9 -32 -2 -22 1 -31 8 -27 6 4
11 23 11 42 0 27 -4 34 -20 34 -11 0 -20 -4 -20 -10z"/>
<path d="M2750 4440 c0 -5 5 -10 11 -10 5 0 7 5 4 10 -3 6 -8 10 -11 10 -2 0
-4 -4 -4 -10z"/>
<path d="M3625 3595 c-22 -8 -50 -15 -62 -15 -13 0 -23 -4 -23 -10 0 -5 -3 -9
-7 -9 -30 5 -46 -5 -58 -35 -10 -22 -23 -36 -37 -38 -17 -2 -26 -15 -38 -53
-8 -27 -19 -56 -23 -63 -5 -8 -4 -19 4 -28 9 -11 8 -18 -6 -34 -14 -15 -15
-20 -4 -20 10 0 14 -14 14 -53 0 -43 5 -61 28 -90 15 -20 34 -37 41 -37 7 0
18 -12 25 -26 6 -14 17 -24 24 -21 6 2 20 -7 30 -19 15 -20 21 -21 48 -12 25
9 32 7 43 -8 13 -17 18 -17 65 -5 27 7 55 10 60 7 5 -4 12 3 16 13 5 17 10 19
31 10 19 -7 25 -6 22 3 -3 7 12 20 32 30 39 20 96 107 87 132 -3 8 0 22 7 32
22 32 19 108 -4 129 -15 13 -19 26 -15 45 4 20 -2 33 -30 60 -19 19 -35 40
-35 48 0 10 -7 13 -21 9 -15 -4 -23 0 -26 14 -3 11 -10 18 -17 17 -6 -1 -22 5
-36 14 -37 25 -90 30 -135 13z"/>
<path d="M4661 3274 c-135 -29 -259 -109 -353 -227 -46 -59 -52 -108 -14 -132
20 -14 36 -14 112 -5 193 25 445 -22 603 -111 l55 -31 21 26 c11 14 28 39 38
55 l18 30 -103 51 c-125 61 -261 97 -424 112 -120 12 -121 12 -98 30 111 88
314 110 491 53 l74 -23 25 50 c14 28 23 56 21 62 -3 7 -36 22 -74 34 -138 43
-274 52 -392 26z"/>
<path d="M7578 2384 c-54 -29 -44 -107 15 -128 22 -8 33 -6 55 11 72 53 8 160
-70 117z"/>
<path d="M7930 2393 c-55 -20 -68 -87 -24 -122 15 -12 35 -21 46 -21 27 0 68
44 68 73 0 44 -51 84 -90 70z"/>
<path d="M8253 2388 c-51 -25 -50 -106 1 -130 35 -15 81 5 96 43 10 24 10 33
-4 54 -13 20 -58 49 -69 44 -1 0 -12 -5 -24 -11z"/>
<path d="M6400 2313 c-65 -9 -169 -56 -191 -86 -3 -5 -10 -9 -15 -10 -10 -1
-67 -77 -58 -77 4 0 2 -6 -3 -12 -6 -8 -5 -24 1 -43 8 -23 16 -29 33 -27 20 3
21 0 16 -31 -3 -20 -1 -37 6 -41 7 -5 11 7 11 35 0 23 2 40 4 38 10 -10 15
-99 6 -104 -6 -3 -10 -15 -10 -26 0 -16 5 -19 20 -14 11 3 20 2 20 -3 0 -15
43 -29 77 -26 18 2 35 -1 38 -6 4 -6 11 -7 17 -4 18 11 56 -16 51 -37 -3 -10
0 -19 6 -19 6 0 11 -5 11 -11 0 -6 -9 -8 -20 -4 -14 4 -20 2 -20 -8 0 -8 -10
-21 -22 -29 -22 -15 -33 -79 -12 -71 6 2 11 -2 11 -10 0 -9 -7 -12 -19 -9 -10
2 -18 13 -18 26 0 17 -2 18 -10 6 -9 -13 -10 -13 -10 0 0 13 -1 13 -10 0 -9
-14 -15 -6 -10 15 1 5 -2 6 -6 2 -5 -4 -10 -20 -12 -35 -5 -42 -11 -38 -10 7
0 23 5 41 10 41 6 0 5 7 -2 15 -17 21 -30 19 -30 -5 0 -25 -2 -25 -41 -1 -19
12 -27 21 -19 26 6 4 9 14 6 22 -4 9 1 21 10 28 21 15 12 65 -11 65 -17 0 -20
-16 -5 -25 24 -15 -5 -27 -47 -21 l-45 6 16 -25 c9 -13 16 -31 16 -39 0 -9 25
-28 57 -43 66 -32 89 -64 29 -39 -43 18 -69 12 -61 -15 8 -23 -3 -24 -75 -4
-60 17 -281 48 -288 40 -9 -9 41 -153 76 -215 19 -36 61 -91 91 -123 54 -57
148 -133 155 -126 2 2 11 49 20 103 19 113 20 116 46 116 15 0 18 -8 18 -46 0
-26 6 -51 12 -58 9 -8 11 -5 6 14 -6 23 -5 23 6 6 22 -31 62 -71 91 -90 36
-22 122 -33 141 -17 10 9 16 9 21 1 8 -14 8 -14 -30 -27 -35 -12 -59 -10 -98
6 -16 6 -33 11 -38 11 -5 0 -9 5 -9 12 0 6 -3 8 -7 5 -3 -4 -22 9 -41 29 -19
19 -32 31 -30 27 2 -4 12 -25 21 -45 36 -78 75 -125 109 -131 27 -3 43 3 90
39 62 48 113 107 98 112 -19 7 -10 22 13 22 18 0 19 2 7 10 -13 9 -7 14 12 11
4 0 5 6 2 14 -4 8 -2 15 3 15 5 0 17 20 27 45 20 47 36 51 36 8 0 -16 7 -27
20 -30 25 -7 25 -26 3 -65 -17 -28 -17 -30 0 -40 15 -8 18 -17 12 -47 -4 -20
-12 -42 -17 -49 -21 -25 3 -25 61 0 78 34 156 86 211 143 37 38 42 47 30 55
-8 5 -23 10 -32 10 -10 0 -26 8 -36 18 -10 9 -27 22 -38 28 -17 10 -17 12 12
27 17 9 34 13 38 10 8 -8 52 34 77 73 22 36 42 129 33 156 -3 10 -12 18 -19
18 -8 0 -12 6 -9 13 5 13 -32 132 -62 202 -10 22 -19 49 -21 60 -2 11 -8 24
-13 29 -6 6 -10 18 -10 27 0 25 -98 123 -150 149 -48 24 -76 33 -180 55 -89
18 -121 22 -150 18z m-94 -398 c2 -16 -23 -28 -31 -15 -3 6 0 16 7 24 14 15
21 13 24 -9z m52 0 c-3 -3 -9 2 -12 12 -6 14 -5 15 5 6 7 -7 10 -15 7 -18z
m77 5 c-3 -5 -10 -10 -16 -10 -5 0 -9 5 -9 10 0 6 7 10 16 10 8 0 12 -4 9 -10z
m49 -14 c-3 -9 -12 -12 -22 -9 -15 6 -9 11 25 22 1 1 0 -5 -3 -13z m-307 -92
c-3 -3 -12 -4 -19 -1 -8 3 -5 6 6 6 11 1 17 -2 13 -5z m377 -50 c13 -5 14 -9
5 -21 -10 -11 -8 -15 9 -20 12 -3 22 -12 22 -19 0 -8 8 -14 18 -15 23 -1 -25
-17 -56 -18 -21 -1 -23 2 -17 28 4 21 2 30 -11 35 -13 5 -14 9 -4 21 14 17 13
17 34 9z m-305 -124 c-6 -16 -15 -30 -20 -30 -4 0 -13 -9 -19 -20 -17 -31 11
-15 39 23 13 18 20 23 17 12 -4 -11 -13 -37 -19 -57 -12 -37 -12 -38 -96 -54
-17 -3 -61 17 -61 28 0 5 8 23 17 41 13 25 18 28 21 15 2 -10 11 -18 20 -18
12 0 13 3 5 11 -16 16 16 49 48 49 15 0 32 7 39 15 18 22 20 19 9 -15z m-122
-12 c-3 -8 -6 -5 -6 6 -1 11 2 17 5 13 3 -3 4 -12 1 -19z m187 -75 c-9 -7 -21
-10 -26 -7 -14 9 -1 20 22 20 20 0 20 -1 4 -13z m26 -138 c-7 -9 -15 -13 -17
-11 -7 7 7 26 19 26 6 0 6 -6 -2 -15z m-30 1 c0 -3 -4 -8 -10 -11 -5 -3 -10
-1 -10 4 0 6 5 11 10 11 6 0 10 -2 10 -4z m220 -92 c0 -10 -28 -34 -39 -34 -6
0 -11 5 -11 10 0 6 7 10 15 10 8 0 15 5 15 10 0 6 5 10 10 10 6 0 10 -3 10 -6z"/>
<path d="M6172 1330 c0 -14 2 -19 5 -12 2 6 2 18 0 25 -3 6 -5 1 -5 -13z"/>
</g>
</svg>
